<?xml version="1.0" encoding="UTF-8" standalone="no"?><!DOCTYPE svg PUBLIC "-//W3C//DTD SVG 1.1//EN" "http://www.w3.org/Graphics/SVG/1.1/DTD/svg11.dtd"><svg width="100%" height="100%" viewBox="0 0 21 21" version="1.1" xmlns="http://www.w3.org/2000/svg" xmlns:xlink="http://www.w3.org/1999/xlink" xml:space="preserve" xmlns:serif="http://www.serif.com/" style="fill-rule:evenodd;clip-rule:evenodd;stroke-linecap:round;stroke-linejoin:round;stroke-miterlimit:1.5;"><g id="Sinogram-view" serif:id="Sinogram view"><rect id="Sinogram-window" serif:id="Sinogram window" x="0" y="12" width="21" height="9" style="fill:#363636;"/><rect id="Sinogram" x="1" y="14" width="19" height="5" style="fill:url(#_Linear1);"/><path d="M21,12l0,9l-21,0l0,-9l21,0Zm-1,1l-19,-0l0,7l19,0l0,-7Z"/><rect id="Sinogram-title" serif:id="Sinogram title" x="0" y="10" width="21" height="3" style="fill:#a0a0a0;"/><path d="M21,10l0,3l-21,0l0,-3l21,0Zm-1,1l-19,0l0,1l19,-0l0,-1Z"/></g><rect id="_3D-view" serif:id="3D view" x="0" y="0" width="21" height="11" style="fill:#d1d1f2;"/><g id="Cube"><path d="M15,1l0,9l-9,0l0,-9l9,0Zm-1,1l-7,-0l-0,7l7,0l-0,-7Z" style="fill:#34343b;"/><path d="M13,3l0,5l-5,0l0,-5l5,-0Zm-1,1l-3,-0l-0,3l3,0l-0,-3Z" style="fill:#34343b;"/><path d="M14.5,1.5l-2,2" style="fill:none;stroke:#34343b;stroke-width:1px;"/><path d="M14.5,9.5l-2,-2" style="fill:none;stroke:#34343b;stroke-width:1px;"/><path d="M6.5,9.5l2,-2" style="fill:none;stroke:#34343b;stroke-width:1px;"/><path d="M6.5,1.5l2,2" style="fill:none;stroke:#34343b;stroke-width:1px;"/></g><path d="M21,0l0,11l-21,0l0,-11l21,0Zm-1,1l-19,-0l0,9l19,0l0,-9Z"/><defs><linearGradient id="_Linear1" x1="0" y1="0" x2="1" y2="-0" gradientUnits="userSpaceOnUse" gradientTransform="matrix(16.076463,-0.012605,0.017647,11.483188,2.276676,16.26728)"><stop offset="0" style="stop-color:#191919;stop-opacity:1"/><stop offset="0.19" style="stop-color:#222;stop-opacity:1"/><stop offset="0.42" style="stop-color:#a6a6a6;stop-opacity:1"/><stop offset="0.75" style="stop-color:#676767;stop-opacity:1"/><stop offset="1" style="stop-color:#171717;stop-opacity:1"/></linearGradient></defs></svg>