<?xml version="1.0" encoding="UTF-8" standalone="no"?><!DOCTYPE svg PUBLIC "-//W3C//DTD SVG 1.1//EN" "http://www.w3.org/Graphics/SVG/1.1/DTD/svg11.dtd"><svg width="100%" height="100%" viewBox="0 0 31 31" version="1.1" xmlns="http://www.w3.org/2000/svg" xmlns:xlink="http://www.w3.org/1999/xlink" xml:space="preserve" xmlns:serif="http://www.serif.com/" style="fill-rule:evenodd;clip-rule:evenodd;stroke-linecap:round;stroke-linejoin:round;stroke-miterlimit:1.5;"><path d="M3.431,14.814c0,-1.89 5.373,-3.422 12.001,-3.422c6.627,0 12,3.492 12,7.8c0,4.305 -5.377,7.8 -12,7.8c-6.627,-0 -12,-3.492 -12,-7.8" style="fill:none;stroke:#2c6c00;stroke-width:2px;"/><path id="Cube" d="M22.474,10l0,11.299l-7.11,3.555l0,-11.292l7.11,-3.562Zm-14.227,-0.005l7.114,3.56l0,11.294l-7.114,-3.557l-0,-11.297Zm14.227,0.005l-7.109,3.554l-7.118,-3.559l7.09,-3.564l7.137,3.569Z" style="fill:#d00000;"/><path d="M8.246,9.996l7.114,3.56l0,11.294l-7.114,-3.557l-0,-11.297Zm14.227,0.005l0,11.299l-7.11,3.555l0,-11.292l7.11,-3.562Zm-14.227,-0.005l7.09,-3.564l7.137,3.569l-7.109,3.554l-7.118,-3.559Zm1.5,2.428l-0,7.942l4.114,2.057l0,-7.941l-4.114,-2.059Zm11.227,0.006l-4.11,2.059l-0,7.939l4.11,-2.055l0,-7.943Zm-1.854,-2.429l-3.781,-1.891l-3.745,1.882l3.771,1.886l3.755,-1.877Z" style="fill:#2c0000;"/><path d="M3.432,11.189c-0,-3.892 5.373,-7.047 12,-7.047c6.623,0 12,3.158 12,7.047c-0,3.892 -5.373,7.047 -12,7.047c-6.628,-0 -12.001,-1.532 -12.001,-3.422" style="fill:none;stroke:#2c6c00;stroke-width:2px;"/></svg>